<?xml version="1.0" encoding="utf-8"?>
<!-- Generator: Adobe Illustrator 23.0.1, SVG Export Plug-In . SVG Version: 6.00 Build 0)  -->
<svg version="1.1" id="Layer_1" xmlns="http://www.w3.org/2000/svg" xmlns:xlink="http://www.w3.org/1999/xlink" x="0px" y="0px"
	 viewBox="0 0 370.9 178.76" style="enable-background:new 0 0 370.9 178.76;" xml:space="preserve">
<style type="text/css">
	.st0{fill:#0068AF;}
</style>
<g>
	<g>
		<g>
			<path d="M5.62,162.13v-49.11h12.3c4.97,0,8.91,1.23,11.83,3.69s4.38,5.79,4.38,9.98c0,2.86-0.71,5.33-2.14,7.42
				s-3.48,3.64-6.15,4.68c1.57,1.03,3.11,2.44,4.61,4.22s3.61,4.89,6.33,9.32c1.71,2.79,3.08,4.89,4.11,6.29l2.6,3.52h-8.37
				l-2.14-3.24c-0.07-0.12-0.21-0.32-0.42-0.6l-1.37-1.94l-2.18-3.59l-2.35-3.83c-1.45-2.02-2.78-3.62-3.99-4.81
				s-2.3-2.05-3.27-2.58c-0.97-0.53-2.61-0.79-4.91-0.79h-1.83v21.38H5.62z M14.77,119h-2.11v15.5h2.67c3.56,0,6.01-0.3,7.33-0.91
				s2.36-1.53,3.09-2.76s1.11-2.63,1.11-4.2c0-1.55-0.41-2.95-1.23-4.2s-1.97-2.14-3.46-2.65S18.21,119,14.77,119z"/>
			<path d="M68.68,112.32c7.59,0,13.91,2.4,18.95,7.21s7.57,10.83,7.57,18.07s-2.55,13.24-7.64,17.98s-11.52,7.12-19.27,7.12
				c-7.4,0-13.57-2.37-18.5-7.12s-7.4-10.69-7.4-17.84c0-7.34,2.48-13.41,7.45-18.21S61.09,112.32,68.68,112.32z M68.96,119
				c-5.62,0-10.24,1.76-13.86,5.27s-5.43,8-5.43,13.46c0,5.3,1.81,9.7,5.44,13.22s8.17,5.27,13.63,5.27
				c5.48,0,10.05-1.79,13.72-5.38s5.5-8.05,5.5-13.39c0-5.2-1.83-9.58-5.5-13.13S74.3,119,68.96,119z"/>
			<path d="M146.18,150.74v7.73c-5.16,2.81-11.11,4.22-17.86,4.22c-5.48,0-10.14-1.1-13.96-3.3s-6.84-5.24-9.07-9.11
				s-3.34-8.05-3.34-12.55c0-7.15,2.55-13.16,7.65-18.04s11.38-7.31,18.86-7.31c5.16,0,10.89,1.35,17.19,4.04v7.56
				c-5.74-3.28-11.36-4.92-16.84-4.92c-5.62,0-10.29,1.78-14.01,5.33s-5.57,8-5.57,13.34c0,5.39,1.83,9.82,5.48,13.29
				s8.33,5.2,14.03,5.2C134.7,156.23,140.51,154.4,146.18,150.74z"/>
			<path d="M182.6,113.02h8.79l-21.3,23.31l26.54,25.8h-9.6l-25.1-24.26v24.26h-7.03v-49.11h7.03v22.46L182.6,113.02z"/>
			<path d="M201.66,162.13v-49.18h15.57c4.69,0,8.43,1.27,11.21,3.8s4.18,5.93,4.18,10.2c0,2.86-0.71,5.39-2.14,7.59
				s-3.39,3.8-5.87,4.8s-6.05,1.49-10.69,1.49h-5.2v21.3H201.66z M216,119.21h-7.28v15.36h7.7c2.86,0,5.06-0.67,6.61-2.02
				s2.32-3.28,2.32-5.78C225.35,121.73,222.23,119.21,216,119.21z"/>
			<path d="M248.66,112.74h4.94l22.02,49.39h-7.2l-6.54-14.55h-20.95l-6.14,14.55h-7.23L248.66,112.74z M258.99,141.32l-7.92-17.79
				l-7.35,17.79H258.99z"/>
			<path d="M320.45,150.74v7.73c-5.16,2.81-11.11,4.22-17.86,4.22c-5.48,0-10.14-1.1-13.96-3.3s-6.84-5.24-9.07-9.11
				s-3.34-8.05-3.34-12.55c0-7.15,2.55-13.16,7.65-18.04s11.38-7.31,18.86-7.31c5.16,0,10.89,1.35,17.19,4.04v7.56
				c-5.74-3.28-11.36-4.92-16.84-4.92c-5.62,0-10.29,1.78-14.01,5.33s-5.57,8-5.57,13.34c0,5.39,1.83,9.82,5.48,13.29
				s8.33,5.2,14.03,5.2C308.96,156.23,314.78,154.4,320.45,150.74z"/>
			<path d="M356.87,113.02h8.79l-21.3,23.31l26.54,25.8h-9.6l-25.1-24.26v24.26h-7.03v-49.11h7.03v22.46L356.87,113.02z"/>
		</g>
	</g>
	<path class="st0" d="M283.45,49c-10.01-1.23-28.98-4-39.79-5.33l1.96-4.49c-4.76-4.81-9.09-9.19-14.15-14.3
		c-2.03,2.7-4.68,5.83-6.89,9.25c-4.52,6.98-10.36,12.34-17.92,15.88c-8.98,4.21-16.66,9.91-21.44,18.92
		c-0.7,1.32-1.86,2.38-3.27,3.23c1.8-11.24,6.74-20.4,17.16-25.96c5.65-3.01,10.8-6.5,12.26-13.35c0.15-0.72,0.17-1.47,0.28-2.51
		c-5.47-0.99-8.59,2.18-11.57,5.45c-6.27,6.87-12.06,14.24-18.76,20.65c-19.53,18.68-43.47,26.58-70.08,27.53
		c-4.65,0.17-9.27,0.8-13.91,1.18c-0.33,0.03-7.66,0.6-9.88-0.16c3.87-1.44,13.22-3.44,15.72-4.01c13.39-3.04,26.99-5.31,40.18-9.04
		c12.6-3.56,21.27-13.26,31.88-22.78c-6.99-3.8-12.43-8.18-18.6-9.78c-8.52-2.2-15.84,1.61-20.84,9.08
		c-2.28,3.42-4.52,6.86-6.75,10.32c-2.54,3.93-5.64,7.45-9.21,10.47l-0.81,0.68L124.45,55L97.59,70.53
		c8.56-6.97,17.11-13.94,25.67-20.9l7.19-6.63c-2.12,1.17-13.06,6.66-14.98,8.09c-10.71,7.96-20.92,16.71-32.14,23.87
		c-6.4,4.08-13.65,6.83-20.76,9.79c-3.3,1.37-6.83,2.13-10.4,2.19C30.35,87.29,19.47,88,18.45,88c4.11-1.03,0.05-1.88,28.72-3.76
		c7.49-0.49,14.71-2.96,20.96-7.11c15.78-10.46,29.35-23.73,43.69-36.02c6.24-5.35,11.81-10.91,21.45-10.8
		c4.65,0.05,9.41-4.93,14.03-7.77c3.03-1.86,5.26-2.68,8.95-0.09c8.78,6.17,18.25,11.37,27.79,17.18c1.45-1.72,3.06-4.1,5.12-5.96
		c3.4-3.06,6.75-7.58,10.72-8.34c13.92-2.68,24.42-12.17,37.08-17.17c1.86-0.74,3.28-2.77,4.72-4.37c4.39-4.87,8.42-5.22,12.37-0.02
		c11.63,15.32,26.78,26.64,41.77,38.26c4.03,3.13,6.94,7.7,10.33,11.64c3.52,4.11,6.84,8.4,10.53,12.34
		c2.72,2.9,5.92,5.37,10.26,9.24C312.45,74,307.72,63.2,291.45,66l-35,5c5.74-1.73,23.09-6.37,35.85-9.9
		c5.61-1.55,6.84-9.12,1.89-12.19c-0.03-0.02-0.07-0.04-0.1-0.06c-6.71-4.09-13.88-7.42-20.86-11.09c-1.43-0.75-2.74-2.04-4.24-2.3
		c-7.17-1.21-12.53-5.13-17.05-10.55c-0.58-0.7-1.59-1.04-2.81-1.81c-1.72,4.49-0.53,6.87,3.33,9.01L283.45,49z"/>
</g>
</svg>
